<?xml version="1.0" standalone="no"?>
<!DOCTYPE svg PUBLIC "-//W3C//DTD SVG 1.1//EN"
  "http://www.w3.org/Graphics/SVG/1.1/DTD/svg11.dtd">
<svg version="1.1" xmlns="http://www.w3.org/2000/svg" xmlns:xlink="http://www.w3.org/1999/xlink" width="3840" height="2160" viewBox="-1040.888888888889 -32 1889.7777777777778 1063" id="ccdiagram"><filter id="grayscale"><feColorMatrix type="matrix" values="0.3333 0.3333 0.3333 0 0 0.3333 0.3333 0.3333 0 0 0.3333 0.3333 0.3333 0 0 0 0 0 1 0"></feColorMatrix></filter><defs><style type="text/css">@import url('https://fonts.googleapis.com/css?family=Open+Sans:400,700|Inconsolata:400');</style></defs><g><g pointer-events="auto"><g opacity="1"><g><g><polygon points="-256 592, -144 657, -144 694, -256 759, -320 759, -432 694, -432 657, -320 592" fill="#ffffff" stroke-width="2" stroke="#818181"></polygon><polygon points="-288 611, -176 675, -288 740, -400 675" fill="#e6e7e8" stroke-width="0" stroke="#818181"></polygon></g></g></g><g opacity="1"><g><g><polygon points="-32 722, 64 777, 64 814, 16 842, -48 842, -144 786, -144 749, -96 722" fill="#ffffff" stroke-width="2" stroke="#818181"></polygon><polygon points="-64 740, 32 796, -16 823, -112 768" fill="#e6e7e8" stroke-width="0" stroke="#818181"></polygon></g></g></g><g opacity="1"><g><g><polygon points="-112 490, 16 564, 16 601, -32 629, -96 629, -224 555, -224 518, -176 490" fill="#ffffff" stroke-width="2" stroke="#818181"></polygon><polygon points="-144 509, -16 583, -64 611, -192 537" fill="#16a01b" stroke-width="0" stroke="#818181"></polygon></g></g></g><g opacity="1"><g><g><polygon points="112 620, 240 694, 240 731, 192 759, 128 759, 0 685, 0 648, 48 620" fill="#ffffff" stroke-width="2" stroke="#818181"></polygon><polygon points="80 638, 208 712, 160 740, 32 666" fill="#16a01b" stroke-width="0" stroke="#818181"></polygon></g></g></g><g opacity="1"><g><g><polygon points="-48 213, 80 287, 80 324, 32 352, -32 352, -160 278, -160 241, -112 213" fill="#ffffff" stroke-width="2" stroke="#818181"></polygon><polygon points="-80 231, 48 305, 0 333, -128 259" fill="#16a01b" stroke-width="0" stroke="#818181"></polygon></g></g></g><g opacity="1"><g><g><polygon points="176 83, 288 148, 288 185, 176 250, 112 250, 0 185, 0 148, 112 83" fill="#ffffff" stroke-width="2" stroke="#818181"></polygon><polygon points="144 102, 256 167, 144 231, 32 167" fill="#9e9e9e" stroke-width="0" stroke="#818181"></polygon></g></g></g><g opacity="1"><g><g><polygon points="592 324, 704 389, 704 426, 592 490, 528 490, 416 426, 416 389, 528 324" fill="#ffffff" stroke-width="2" stroke="#818181"></polygon><polygon points="560 342, 672 407, 560 472, 448 407" fill="#9a9595" stroke-width="0" stroke="#818181"></polygon></g></g></g><g opacity="1"><g><g><polygon points="384 463, 512 537, 512 574, 464 601, 400 601, 272 527, 272 490, 320 463" fill="#ffffff" stroke-width="2" stroke="#818181"></polygon><polygon points="352 481, 480 555, 432 583, 304 509" fill="#16a01b" stroke-width="0" stroke="#818181"></polygon></g></g></g><g opacity="1"><g><g><polygon points="384 204, 496 268, 496 305, 384 370, 320 370, 208 305, 208 268, 320 204" fill="#ffffff" stroke-width="2" stroke="#818181"></polygon><polygon points="352 222, 464 287, 352 352, 240 287" fill="#9a9595" stroke-width="0" stroke="#818181"></polygon></g></g></g><g opacity="1"><g><g><polygon points="160 333, 288 407, 288 444, 240 472, 176 472, 48 398, 48 361, 96 333" fill="#ffffff" stroke-width="2" stroke="#818181"></polygon><polygon points="128 352, 256 426, 208 453, 80 379" fill="#4286c5" stroke-width="0" stroke="#818181"></polygon></g></g></g><g opacity="1"><g><g><polygon points="-704 333, -592 398, -592 435, -704 500, -768 500, -880 435, -880 398, -768 333" fill="#ffffff" stroke-width="2" stroke="#818181"></polygon><polygon points="-736 352, -624 416, -736 481, -848 416" fill="#cbb2cf" stroke-width="0" stroke="#818181"></polygon></g></g></g><g opacity="1"><g><g><polygon points="-544 241, -416 315, -416 352, -464 379, -528 379, -656 305, -656 268, -608 241" fill="#ffffff" stroke-width="2" stroke="#818181"></polygon><polygon points="-576 259, -448 333, -496 361, -624 287" fill="#4286c5" stroke-width="0" stroke="#818181"></polygon></g></g></g><g opacity="1"><g><g><polygon points="-512 444, -400 509, -400 546, -512 611, -576 611, -688 546, -688 509, -576 444" fill="#ffffff" stroke-width="2" stroke="#818181"></polygon><polygon points="-544 463, -432 527, -544 592, -656 527" fill="#cbb2cf" stroke-width="0" stroke="#818181"></polygon></g></g></g><g opacity="1"><g><g><polygon points="-352 352, -224 426, -224 463, -272 490, -336 490, -464 416, -464 379, -416 352" fill="#ffffff" stroke-width="2" stroke="#818181"></polygon><polygon points="-384 370, -256 444, -304 472, -432 398" fill="#16a01b" stroke-width="0" stroke="#818181"></polygon></g></g></g></g><g pointer-events="auto"></g><g></g><g pointer-events="auto"></g><g></g><g pointer-events="auto"></g><g pointer-events="auto"></g><g pointer-events="none"></g><g pointer-events="auto"><g><g cursor="cell"><line x1="-304" y1="675" x2="-170" y2="598" stroke="red" stroke-width="8" opacity="0"></line><line x1="-304" y1="675" x2="-170" y2="598" stroke="#000000" stroke-width="2" stroke-linecap="round"></line><polygon points="-160 592, -186 597, -172 599, -169 607, -160 592" stroke-linejoin="round" fill="#000000" stroke="#000000" stroke-width="1"></polygon></g></g><g><g cursor="cell"><line x1="144" y1="157" x2="10" y2="235" stroke="red" stroke-width="8" opacity="0"></line><line x1="144" y1="157" x2="10" y2="235" stroke="#000000" stroke-width="2" stroke-linecap="round"></line><polygon points="0 241, 26 235, 12 233, 9 226, 0 241" stroke-linejoin="round" fill="#000000" stroke="#000000" stroke-width="1"></polygon></g></g><g><g cursor="cell"><line x1="560" y1="398" x2="440" y2="484" stroke="red" stroke-width="8" opacity="0"></line><line x1="560" y1="398" x2="440" y2="484" stroke="#000000" stroke-width="2" stroke-linecap="round"></line><polygon points="432 490, 456 483, 443 482, 438 475, 432 490" stroke-linejoin="round" fill="#000000" stroke="#000000" stroke-width="1"></polygon></g></g><g><g cursor="cell"><line x1="352" y1="296" x2="234" y2="364" stroke="red" stroke-width="8" opacity="0"></line><line x1="352" y1="296" x2="234" y2="364" stroke="#000000" stroke-width="2" stroke-linecap="round"></line><polygon points="224 370, 250 365, 236 363, 233 355, 224 370" stroke-linejoin="round" fill="#000000" stroke="#000000" stroke-width="1"></polygon></g></g><g><g cursor="cell"><line x1="-736" y1="407" x2="-618" y2="339" stroke="red" stroke-width="8" opacity="0"></line><line x1="-736" y1="407" x2="-618" y2="339" stroke="#000000" stroke-width="2" stroke-linecap="round"></line><polygon points="-608 333, -634 338, -620 340, -617 348, -608 333" stroke-linejoin="round" fill="#000000" stroke="#000000" stroke-width="1"></polygon></g></g><g><g cursor="cell"><line x1="-544" y1="518" x2="-426" y2="450" stroke="red" stroke-width="8" opacity="0"></line><line x1="-544" y1="518" x2="-426" y2="450" stroke="#000000" stroke-width="2" stroke-linecap="round"></line><polygon points="-416 444, -442 449, -428 451, -425 459, -416 444" stroke-linejoin="round" fill="#000000" stroke="#000000" stroke-width="1"></polygon></g></g></g><g pointer-events="auto"></g><g pointer-events="auto"><g opacity="1"><g id="1d57913f-a72f-43b3-8d52-814ec4fc2d42" transform="translate(0 0)"><svg x="-304" y="675" overflow="visible"><g transform="scale(0.20000000000000015) "><svg x="-150" y="-117" overflow="visible"><image xlink:href="https://images.cloudcraft.co/9f78541c-ee2a-4d15-82bd-864fe4102744/nginx.png" width="300" height="234"></image></svg></g></svg></g></g><g opacity="1"><g id="d4c388f3-a98b-4828-b0ce-05167c338e7a" transform="translate(0 0)"><svg x="144" y="157" overflow="visible"><g transform="scale(0.14150000000000001) matrix(0.707 0.409 -0.707 0.409 0 0)"><svg x="-512" y="-512" overflow="visible"><image xlink:href="https://images.cloudcraft.co/9f78541c-ee2a-4d15-82bd-864fe4102744/wp.png" width="1024" height="1024"></image></svg></g></svg></g></g><g opacity="1"><g id="91a64ab1-4cf0-44fd-8604-d5de58cca96a" transform="translate(0 0)"><svg x="560" y="398" overflow="visible"><g transform="scale(0.1415000000000002) matrix(0.707 0.409 -0.707 0.409 0 0)"><svg x="-600" y="-315" overflow="visible"><image xlink:href="https://images.cloudcraft.co/9f78541c-ee2a-4d15-82bd-864fe4102744/pma.png" width="1200" height="630"></image></svg></g></svg></g></g><g opacity="1"><g id="35d3dc1f-e89d-42bc-bb39-8cedc52120bd" transform="translate(0 0)"><svg x="352" y="296" overflow="visible"><g transform="scale(0.2830000000000002) matrix(0.707 0.409 -0.707 0.409 0 0)"><svg x="-300" y="-200" overflow="visible"><image xlink:href="https://images.cloudcraft.co/9f78541c-ee2a-4d15-82bd-864fe4102744/MySQL.png" width="600" height="400"></image></svg></g></svg></g></g><g opacity="1"><g id="3b8e2c68-271f-473a-bf06-d5835f35a748" transform="translate(0 0)"><svg x="-736" y="407" overflow="visible"><g transform="scale(0.5660000000000002) matrix(0.707 0.409 -0.707 0.409 0 0)"><svg x="-336" y="-125" width="672" height="250"><svg viewBox="0 0 672 250"><g><linearGradient id="a" gradientUnits="userSpaceOnUse" x1="205.324" y1="125" x2="483.088" y2="125"><stop offset="0" stop-color="#4591ed"></stop><stop offset="1" stop-color="#00c9ff"></stop></linearGradient><path d="M242.5 133.3l-7.6-33.2c-.4-1.8-2.1-3.6-3.9-4.1l-34.9-10.7c-.5-.1-1-.2-1.5-.2-1.5 0-3.1.6-4 1.5l-25 23.2c-1.3 1.2-2.1 3.6-1.7 5.4l8.1 35.5c.4 1.8 2.1 3.6 3.9 4.1l32.6 10c.5.1 1 .2 1.5.2 1.5 0 3.1-.6 4-1.5l26.7-24.8c1.5-1.2 2.2-3.6 1.8-5.4zm-42.8-40.2l23.9 7.3c.9.3.9.7 0 .9l-12.6 2.9c-1 .2-2.3-.2-2.9-.9l-8.8-9.5c-.7-.6-.5-.9.4-.7zm14.9 42.9c.2 1-.4 1.5-1.3 1.2l-25.8-7.9c-.9-.3-1.1-1.1-.4-1.7l19.8-18.4c.7-.7 1.5-.4 1.7.5l6 26.3zm-42.5-23.4l21-19.5c.7-.7 1.8-.6 2.5.1l10.5 11.3c.7.7.6 1.8-.1 2.5l-21 19.5c-.7.7-1.8.6-2.5-.1L172 115.1c-.6-.7-.6-1.8.1-2.5zm5.1 31l-5.6-24.3c-.2-1 .1-1.1.8-.4l8.8 9.5c.7.7 1 2.1.7 3l-3.8 12.3c-.2.8-.7.8-.9-.1zm30.7 14.1l-27.3-8.4c-.9-.3-1.5-1.3-1.2-2.2l4.5-14.8c.3-.9 1.3-1.5 2.2-1.2l27.3 8.4c.9.3 1.5 1.3 1.2 2.2l-4.5 14.8c-.3 1-1.3 1.5-2.2 1.2zm24.3-19.9l-18.3 17c-.7.7-1.1.4-.8-.5l3.8-12.3c.3-.9 1.3-1.9 2.3-2.1l12.6-2.9c.9-.2 1.1.2.4.8zm2-3.6l-15.1 3.4c-1 .2-1.9-.4-2.1-1.3l-6.4-27.9c-.2-1 .4-1.9 1.3-2.1l15.1-3.4c1-.2 1.9.4 2.1 1.3l6.4 27.9c.2.9-.4 1.9-1.3 2.1z" fill="url(#a)"></path><g><g><linearGradient id="b" gradientUnits="userSpaceOnUse" x1="205.324" y1="120.538" x2="483.088" y2="120.538"><stop offset="0" stop-color="#4591ed"></stop><stop offset="1" stop-color="#00c9ff"></stop></linearGradient><path d="M273.5 111.4l8.9-1.2-6.3 35.8h-8.7l6.1-34.6zm2.6-15.1l8.9-1.2-1.7 9.8-8.9 1.3 1.7-9.9z" fill="url(#b)"></path><linearGradient id="c" gradientUnits="userSpaceOnUse" x1="205.324" y1="127.991" x2="483.088" y2="127.991"><stop offset="0" stop-color="#4591ed"></stop><stop offset="1" stop-color="#00c9ff"></stop></linearGradient><path d="M310.2 120.9c.1-.4.1-.8.1-.9 0-.9-.4-1.5-1.8-1.5-2.3 0-7.2 2.2-10.5 4.1l-4.1 23.4h-8.7l6.1-34.5 7.5-1.3-.1 4.3c4.6-2.5 10.1-4.4 14.3-4.4 4.8 0 6.4 3.2 6.4 7 0 1.4-.1 2.3-.4 3.5l-4.5 25.5h-8.7l4.4-25.2z" fill="url(#c)"></path><linearGradient id="d" gradientUnits="userSpaceOnUse" x1="205.324" y1="127.918" x2="483.088" y2="127.918"><stop offset="0" stop-color="#4591ed"></stop><stop offset="1" stop-color="#00c9ff"></stop></linearGradient><path d="M347.4 117.8h-8.1l-5.3 29.8c-1 5.7-3.1 9.3-7.7 13.3l-5.6-5.2c2.8-2.7 4.1-5.1 4.7-8.9l5.1-29h-5.4l1.2-7.1h5.4l.9-5.1c1.3-7.5 4.3-10.8 13.2-10.8 2.9 0 6.7.4 11.1 1.4l8.9-1.2-9 50.9h-8.7l7.6-43.1c-3.5-.7-7-1.1-9.8-1.1-3 0-4.2 1-4.6 3.5l-.9 5.4h8.8l-1.8 7.2z" fill="url(#d)"></path><linearGradient id="e" gradientUnits="userSpaceOnUse" x1="205.324" y1="128.425" x2="483.088" y2="128.425"><stop offset="0" stop-color="#4591ed"></stop><stop offset="1" stop-color="#00c9ff"></stop></linearGradient><path d="M376.1 135.8c-.1.5-.1.8-.1.9 0 .9.4 1.5 1.8 1.5 2.3 0 7.2-2.2 10.5-4.1l4-22.8 8.9-1.2L395 146h-7.4l.1-3.7c-4.6 2.5-10.1 4.4-14.3 4.4-4.8 0-6.4-3.2-6.4-7 0-1.4.1-2.3.4-3.5l4.3-24.8 8.9-1.2-4.5 25.6z" fill="url(#e)"></path><linearGradient id="f" gradientUnits="userSpaceOnUse" x1="205.324" y1="128.063" x2="483.088" y2="128.063"><stop offset="0" stop-color="#4591ed"></stop><stop offset="1" stop-color="#00c9ff"></stop></linearGradient><path d="M414.9 128.2l-7.6-16.6 8.1-1.5 5.3 12.5 8.7-11.9h9.3l-14.4 18.6L432 146h-8.8l-4.8-10.2-8.5 10.2h-9.3l14.3-17.8z" fill="url(#f)"></path><linearGradient id="g" gradientUnits="userSpaceOnUse" x1="205.324" y1="120.9" x2="483.088" y2="120.9"><stop offset="0" stop-color="#4591ed"></stop><stop offset="1" stop-color="#00c9ff"></stop></linearGradient><path d="M465.3 146h-7.4v-3.9c-3 2.7-6.8 4.6-12 4.6-6.1 0-8.2-3.3-8.2-8 0-1.2.1-2.4.4-3.7l1.8-10.3c1.6-9 3.3-14.7 17.1-14.7 1.3 0 3.8.2 5.8.7l2.5-14.3 8.9-1.2-8.9 50.8zm-3.7-28.2c-1.6-.4-3.9-.4-5.1-.4-5.6 0-7 2.2-7.8 6.9l-2.2 12.4c-.1.4-.1.7-.1.9 0 1.3.9 1.9 2.5 1.9 3.7 0 8-3 9.8-5.3l2.9-16.4z" fill="url(#g)"></path><linearGradient id="h" gradientUnits="userSpaceOnUse" x1="205.324" y1="120.9" x2="483.088" y2="120.9"><stop offset="0" stop-color="#4591ed"></stop><stop offset="1" stop-color="#00c9ff"></stop></linearGradient><path d="M483.1 96.3l8.9-1.2-3.2 18c3.9-2.2 7.6-3.1 11.1-3.1 6.1 0 8.2 3.3 8.2 8 0 1.2-.1 2.4-.4 3.7L506 132c-1.9 10.6-5.5 14.7-18.2 14.7-3.3 0-9.7-1.1-13.2-2.3l8.5-48.1zm1.1 42.6c1.6.3 3.3.5 5.1.5 5.6 0 7-2.3 7.8-6.9l2.2-12.4c.1-.4.1-.7.1-.9 0-1.3-.9-1.9-2.5-1.9-2.7 0-6.4 1.2-9.5 3.3l-3.2 18.3z" fill="url(#h)"></path></g></g></g></svg></svg></g></svg></g></g><g opacity="1"><g id="8eece803-61f9-42fd-b560-21e49e6f3b20" transform="translate(0 0)"><svg x="-544" y="518" overflow="visible"><g transform="scale(0.5660000000000002) matrix(0.707 0.409 -0.707 0.409 0 0)"><svg x="-100" y="-100" overflow="visible"><image xlink:href="https://images.cloudcraft.co/9f78541c-ee2a-4d15-82bd-864fe4102744/grafama.png" width="200" height="200"></image></svg></g></svg></g></g><g opacity="1"><g id="aa982a37-f1a8-4199-baaa-70d5bb5bb63a" transform="translate(0 0)"><svg x="-384" y="111" overflow="visible"><g transform="scale(0.30000000000000016) "><svg x="-450" y="-580" overflow="visible"><image xlink:href="https://images.cloudcraft.co/9f78541c-ee2a-4d15-82bd-864fe4102744/kitten.png" width="900" height="1160"></image></svg></g></svg></g></g><g opacity="1"><g id="e5c7f896-8e6e-4c92-9bc3-ea774e0e1981" transform="translate(0 0)"><svg x="-880" y="842" overflow="visible"><g transform=" "><svg x="-160" y="-120" overflow="visible"><image xlink:href="https://images.cloudcraft.co/9f78541c-ee2a-4d15-82bd-864fe4102744/dDbgSt.gif" width="320" height="240"></image></svg></g></svg></g></g><g opacity="1"><g id="61a77c70-56d8-4623-9d7a-0ad0f49d5631" transform="translate(0 0)"><svg x="672" y="851" overflow="visible"><g transform="scale(0.7000000000000001) "><svg x="-238" y="-140" overflow="visible"><image xlink:href="https://images.cloudcraft.co/9f78541c-ee2a-4d15-82bd-864fe4102744/ddba22b-2fad9d00-1d3f-4ec8-a65d-199a09dfa4e1.gif" width="476" height="280"></image></svg></g></svg></g></g></g><g pointer-events="auto"><g opacity="1"><g id="332fbc94-76fe-426b-a469-6472a12e9bef" transform="translate(0 0)"><svg x="48" y="342" overflow="visible"><g transform="scale(1.3975424859373686) matrix(0.707 0.409 -0.707 0.409 0 0)"><circle cx="0" cy="0" fill="#f44336" r="23"></circle><svg width="27" height="32" x="-13.5" y="-16" style="fill: rgb(0, 0, 0);"><svg xmlns="http://www.w3.org/2000/svg" width="27" height="32" viewBox="0 0 27 32"><path d="M22.946 16c0-.304-.107-.589-.321-.804l-8.089-8.089c-.214-.214-.5-.321-.804-.321s-.589.107-.804.321l-1.625 1.625c-.214.214-.321.5-.321.804s.107.589.321.804l3.375 3.375H5.714c-.625 0-1.143.518-1.143 1.143v2.286c0 .625.518 1.143 1.143 1.143h8.964l-3.375 3.375c-.214.214-.339.5-.339.804s.125.589.339.804l1.625 1.625c.214.214.5.321.804.321s.589-.107.804-.321l8.089-8.089c.214-.214.321-.5.321-.804zm4.483 0c0 7.571-6.143 13.714-13.714 13.714S.001 23.571.001 16 6.144 2.286 13.715 2.286 27.429 8.429 27.429 16z"></path></svg></svg></g></svg></g></g><g opacity="1"><g id="1a4e9d96-9c7b-488f-bbfb-a101cddf3e3f" transform="translate(0 0)"><svg x="272" y="472" overflow="visible"><g transform="scale(1.3975424859373686) matrix(-0.707 -0.409 0.707 -0.409 0 0)"><circle cx="0" cy="0" fill="#f44336" r="23"></circle><svg width="27" height="32" x="-13.5" y="-16" style="fill: rgb(0, 0, 0);"><svg xmlns="http://www.w3.org/2000/svg" width="27" height="32" viewBox="0 0 27 32"><path d="M22.946 16c0-.304-.107-.589-.321-.804l-8.089-8.089c-.214-.214-.5-.321-.804-.321s-.589.107-.804.321l-1.625 1.625c-.214.214-.321.5-.321.804s.107.589.321.804l3.375 3.375H5.714c-.625 0-1.143.518-1.143 1.143v2.286c0 .625.518 1.143 1.143 1.143h8.964l-3.375 3.375c-.214.214-.339.5-.339.804s.125.589.339.804l1.625 1.625c.214.214.5.321.804.321s.589-.107.804-.321l8.089-8.089c.214-.214.321-.5.321-.804zm4.483 0c0 7.571-6.143 13.714-13.714 13.714S.001 23.571.001 16 6.144 2.286 13.715 2.286 27.429 8.429 27.429 16z"></path></svg></svg></g></svg></g></g><g opacity="1"><g id="2a90d01e-2fbe-45d5-978f-88a842b70629" transform="translate(0 0)"><svg x="-448" y="370" overflow="visible"><g transform="scale(1.3975424859373686) matrix(-0.707 -0.409 0.707 -0.409 0 0)"><circle cx="0" cy="0" fill="#f44336" r="23"></circle><svg width="27" height="32" x="-13.5" y="-16" style="fill: rgb(0, 0, 0);"><svg xmlns="http://www.w3.org/2000/svg" width="27" height="32" viewBox="0 0 27 32"><path d="M22.946 16c0-.304-.107-.589-.321-.804l-8.089-8.089c-.214-.214-.5-.321-.804-.321s-.589.107-.804.321l-1.625 1.625c-.214.214-.321.5-.321.804s.107.589.321.804l3.375 3.375H5.714c-.625 0-1.143.518-1.143 1.143v2.286c0 .625.518 1.143 1.143 1.143h8.964l-3.375 3.375c-.214.214-.339.5-.339.804s.125.589.339.804l1.625 1.625c.214.214.5.321.804.321s.589-.107.804-.321l8.089-8.089c.214-.214.321-.5.321-.804zm4.483 0c0 7.571-6.143 13.714-13.714 13.714S.001 23.571.001 16 6.144 2.286 13.715 2.286 27.429 8.429 27.429 16z"></path></svg></svg></g></svg></g></g></g><g pointer-events="auto"><g opacity="1"><g id="9aece01e-d4f1-495e-b0af-8091b3ab67b3" transform="translate(0 0)"><svg x="-256" y="611" overflow="visible"><text stroke="#ffffff" stroke-width="4" font-family="Open Sans" y="23.96" font-size="14pt" fill="#000000" font-weight="bold" transform="matrix(0.707 0.409 -0.707 0.409 0 0)" xml:space="preserve"><tspan x="8" dy="0">NGINX + SSH</tspan></text><text font-family="Open Sans" y="23.96" font-size="14pt" fill="#000000" font-weight="bold" transform="matrix(0.707 0.409 -0.707 0.409 0 0)" xml:space="preserve"><tspan x="8" dy="0">NGINX + SSH</tspan></text></svg></g></g><g opacity="1"><g id="97401da2-c9e9-47f7-8873-889bd7a04e4b" transform="translate(0 0)"><svg x="-48" y="749" overflow="visible"><text stroke="#ffffff" stroke-width="4" font-family="Open Sans" y="36.5" font-size="25pt" fill="#000000" font-weight="bold" transform="matrix(0.707 0.409 -0.707 0.409 0 0)" xml:space="preserve"><tspan x="8" dy="0">FTPS</tspan><tspan x="8" dy="1.1em"> </tspan></text><text font-family="Open Sans" y="36.5" font-size="25pt" fill="#000000" font-weight="bold" transform="matrix(0.707 0.409 -0.707 0.409 0 0)" xml:space="preserve"><tspan x="8" dy="0">FTPS</tspan><tspan x="8" dy="1.1em"> </tspan></text></svg></g></g><g opacity="1"><g id="1689b3b4-9784-41a5-80cd-d7e5f7d9cc7b" transform="translate(0 0)"><svg x="-144" y="509" overflow="visible"><text stroke="#ffffff" stroke-width="4" font-family="Open Sans" y="36.5" font-size="25pt" fill="#000000" font-weight="bold" transform="matrix(0.707 0.409 -0.707 0.409 0 0)" xml:space="preserve"><tspan x="8" dy="0">LB: 80/443</tspan></text><text font-family="Open Sans" y="36.5" font-size="25pt" fill="#000000" font-weight="bold" transform="matrix(0.707 0.409 -0.707 0.409 0 0)" xml:space="preserve"><tspan x="8" dy="0">LB: 80/443</tspan></text></svg></g></g><g opacity="1"><g id="c36eb624-f094-4181-b561-f61ce2da346e" transform="translate(0 0)"><svg x="96" y="648" overflow="visible"><text stroke="#ffffff" stroke-width="4" font-family="Open Sans" y="36.5" font-size="25pt" fill="#000000" font-weight="bold" transform="matrix(0.707 0.409 -0.707 0.409 0 0)" xml:space="preserve"><tspan x="8" dy="0">LB: 21</tspan></text><text font-family="Open Sans" y="36.5" font-size="25pt" fill="#000000" font-weight="bold" transform="matrix(0.707 0.409 -0.707 0.409 0 0)" xml:space="preserve"><tspan x="8" dy="0">LB: 21</tspan></text></svg></g></g><g opacity="1"><g id="f9c733ea-472b-409d-903e-8b6ffb74a859" transform="translate(0 0)"><svg x="32" y="148" overflow="visible"><text stroke="#ffffff" stroke-width="4" font-family="Open Sans" y="36.5" font-size="25pt" fill="#000000" font-weight="bold" transform="matrix(0.707 0.409 -0.707 0.409 0 0)" xml:space="preserve"><tspan x="8" dy="0">BAOBE WP</tspan></text><text font-family="Open Sans" y="36.5" font-size="25pt" fill="#000000" font-weight="bold" transform="matrix(0.707 0.409 -0.707 0.409 0 0)" xml:space="preserve"><tspan x="8" dy="0">BAOBE WP</tspan></text></svg></g></g><g opacity="1"><g id="55b5c828-dfce-480b-aa24-17a8970ebb3f" transform="translate(0 0)"><svg x="-64" y="241" overflow="visible"><text stroke="#ffffff" stroke-width="4" font-family="Open Sans" y="36.5" font-size="25pt" fill="#000000" font-weight="bold" transform="matrix(0.707 0.409 -0.707 0.409 0 0)" xml:space="preserve"><tspan x="8" dy="0">LB: 5050</tspan></text><text font-family="Open Sans" y="36.5" font-size="25pt" fill="#000000" font-weight="bold" transform="matrix(0.707 0.409 -0.707 0.409 0 0)" xml:space="preserve"><tspan x="8" dy="0">LB: 5050</tspan></text></svg></g></g><g opacity="1"><g id="70aba15c-a6e4-4b8f-a730-66314aa826fe" transform="translate(0 0)"><svg x="464" y="416" overflow="visible"><text stroke="#ffffff" stroke-width="4" font-family="Open Sans" y="36.5" font-size="25pt" fill="#000000" font-weight="bold" transform="matrix(0.707 0.409 -0.707 0.409 0 0)" xml:space="preserve"><tspan x="8" dy="0">PMA</tspan></text><text font-family="Open Sans" y="36.5" font-size="25pt" fill="#000000" font-weight="bold" transform="matrix(0.707 0.409 -0.707 0.409 0 0)" xml:space="preserve"><tspan x="8" dy="0">PMA</tspan></text></svg></g></g><g opacity="1"><g id="bf512f3a-8e57-4696-b66d-d1bd1eb405af" transform="translate(0 0)"><svg x="368" y="490" overflow="visible"><text stroke="#ffffff" stroke-width="4" font-family="Open Sans" y="36.5" font-size="25pt" fill="#000000" font-weight="bold" transform="matrix(0.707 0.409 -0.707 0.409 0 0)" xml:space="preserve"><tspan x="8" dy="0">LB: 5000</tspan></text><text font-family="Open Sans" y="36.5" font-size="25pt" fill="#000000" font-weight="bold" transform="matrix(0.707 0.409 -0.707 0.409 0 0)" xml:space="preserve"><tspan x="8" dy="0">LB: 5000</tspan></text></svg></g></g><g opacity="1"><g id="84ff85cd-86bb-4df5-8749-ca468a7569c9" transform="translate(0 0)"><svg x="144" y="361" overflow="visible"><text stroke="#ffffff" stroke-width="4" font-family="Open Sans" y="36.5" font-size="25pt" fill="#000000" font-weight="bold" transform="matrix(0.707 0.409 -0.707 0.409 0 0)" xml:space="preserve"><tspan x="8" dy="0">3306</tspan></text><text font-family="Open Sans" y="36.5" font-size="25pt" fill="#000000" font-weight="bold" transform="matrix(0.707 0.409 -0.707 0.409 0 0)" xml:space="preserve"><tspan x="8" dy="0">3306</tspan></text></svg></g></g><g opacity="1"><g id="036f3eb8-b163-4dd5-9122-ad5f1ed8bd4f" transform="translate(0 0)"><svg x="-560" y="268" overflow="visible"><text stroke="#ffffff" stroke-width="4" font-family="Open Sans" y="36.5" font-size="25pt" fill="#000000" font-weight="bold" transform="matrix(0.707 0.409 -0.707 0.409 0 0)" xml:space="preserve"><tspan x="8" dy="0">8086</tspan></text><text font-family="Open Sans" y="36.5" font-size="25pt" fill="#000000" font-weight="bold" transform="matrix(0.707 0.409 -0.707 0.409 0 0)" xml:space="preserve"><tspan x="8" dy="0">8086</tspan></text></svg></g></g><g opacity="1"><g id="18edfca8-87c8-42ef-baae-0cb82fd136cd" transform="translate(0 0)"><svg x="-368" y="379" overflow="visible"><text stroke="#ffffff" stroke-width="4" font-family="Open Sans" y="36.5" font-size="25pt" fill="#000000" font-weight="bold" transform="matrix(0.707 0.409 -0.707 0.409 0 0)" xml:space="preserve"><tspan x="8" dy="0">LB: 3000</tspan></text><text font-family="Open Sans" y="36.5" font-size="25pt" fill="#000000" font-weight="bold" transform="matrix(0.707 0.409 -0.707 0.409 0 0)" xml:space="preserve"><tspan x="8" dy="0">LB: 3000</tspan></text></svg></g></g></g><g></g></g></svg>